<?xml version="1.0" encoding="utf-8"?>
<!-- Generator: Adobe Illustrator 26.5.0, SVG Export Plug-In . SVG Version: 6.00 Build 0)  -->
<svg version="1.1" id="Layer_1" xmlns="http://www.w3.org/2000/svg" xmlns:xlink="http://www.w3.org/1999/xlink" x="0px" y="0px"
	 width="1366px" height="768px" viewBox="0 0 1366 768" style="enable-background:new 0 0 1366 768;" xml:space="preserve">
<style type="text/css">
	.st0{fill:#FFFFFF;}
</style>
<g>
	<path class="st0" d="M42.8,509.7c-23.3,0-42.3-19-42.3-42.3V42.8c0-23.3,19-42.3,42.3-42.3h424.6c23.3,0,42.3,19,42.3,42.3v424.6
		c0,23.3-19,42.3-42.3,42.3H42.8z"/>
	<path d="M467.4,1c23,0,41.8,18.7,41.8,41.8v424.6c0,23-18.7,41.8-41.8,41.8H42.8c-23,0-41.8-18.7-41.8-41.8V42.8
		C1,19.7,19.7,1,42.8,1H467.4 M467.4,0H42.8C19.2,0,0,19.2,0,42.8v424.6c0,23.6,19.2,42.8,42.8,42.8h424.6
		c23.6,0,42.8-19.2,42.8-42.8V42.8C510.2,19.2,491.1,0,467.4,0L467.4,0z"/>
</g>
</svg>
